<svg width="20" height="21" viewBox="0 0 20 21" fill="none" xmlns="http://www.w3.org/2000/svg">
<g clip-path="url(#clip0_69_1480)">
<path d="M5.12276 0.970703H11.8146L17.4792 6.88066V18.3689C17.4792 19.806 16.3145 20.9707 14.8774 20.9707H5.12276C3.68571 20.9707 2.521 19.806 2.521 18.3689V3.57247C2.521 2.13545 3.68571 0.970703 5.12276 0.970703Z" fill="#0263D1"/>
<path fill-rule="evenodd" clip-rule="evenodd" d="M11.8062 0.970703V6.83212H17.4789L11.8062 0.970703Z" fill="black"/>
<path d="M4.93652 15.2412V11.9303H6.10935C6.34391 11.9303 6.56232 11.9654 6.76453 12.0301C6.96674 12.0975 7.15007 12.1946 7.31455 12.324C7.47901 12.4534 7.60844 12.626 7.7028 12.8416C7.79716 13.0573 7.8457 13.3054 7.8457 13.5858C7.8457 13.8662 7.79716 14.1142 7.7028 14.3299C7.60844 14.5456 7.47901 14.7181 7.31455 14.8475C7.15009 14.977 6.96674 15.074 6.76453 15.1414C6.56232 15.2061 6.34393 15.2412 6.10935 15.2412H4.93652ZM5.76424 14.5213H6.00959C6.1417 14.5213 6.26572 14.5052 6.37625 14.4755C6.48949 14.4431 6.59193 14.3919 6.68899 14.3245C6.78606 14.2571 6.86154 14.1601 6.91546 14.0333C6.97209 13.9093 6.99903 13.7583 6.99903 13.5858C6.99903 13.4132 6.97207 13.2622 6.91546 13.1355C6.86154 13.0115 6.78606 12.9144 6.68899 12.847C6.59193 12.7769 6.48949 12.7284 6.37625 12.696C6.26572 12.6664 6.1417 12.6502 6.00959 12.6502H5.76424V14.5213ZM9.85431 15.279C9.35553 15.279 8.94302 15.1172 8.61679 14.7963C8.29055 14.4755 8.12877 14.0711 8.12877 13.5858C8.12877 13.1005 8.29055 12.6961 8.61679 12.3752C8.94302 12.0544 9.35553 11.8926 9.85431 11.8926C10.345 11.8926 10.7521 12.0544 11.0784 12.3752C11.4019 12.6961 11.5637 13.1005 11.5637 13.5858C11.5637 14.0711 11.4019 14.4755 11.0784 14.7963C10.7521 15.1172 10.345 15.279 9.85431 15.279ZM9.21801 14.2841C9.38247 14.4674 9.59276 14.5591 9.8489 14.5591C10.105 14.5591 10.3126 14.4674 10.4771 14.2841C10.6416 14.098 10.7225 13.8662 10.7225 13.5858C10.7225 13.3054 10.6416 13.0735 10.4771 12.8875C10.3127 12.7041 10.105 12.6124 9.8489 12.6124C9.59276 12.6124 9.38247 12.7041 9.21801 12.8875C9.05355 13.0735 8.96996 13.3054 8.96996 13.5858C8.96996 13.8662 9.05355 14.098 9.21801 14.2841ZM13.5318 15.279C13.0492 15.279 12.6475 15.128 12.3294 14.8314C12.0085 14.5321 11.8495 14.1169 11.8495 13.5858C11.8495 13.0573 12.0112 12.6421 12.3348 12.3428C12.661 12.0436 13.0573 11.8926 13.5319 11.8926C13.9605 11.8926 14.311 11.9977 14.5888 12.2107C14.8638 12.421 15.0228 12.7014 15.0633 13.0519L14.2275 13.2218C14.1924 13.0384 14.1088 12.8902 13.9794 12.7796C13.85 12.669 13.699 12.6124 13.5265 12.6124C13.2892 12.6124 13.0924 12.696 12.9333 12.8659C12.7742 13.0384 12.6933 13.2757 12.6933 13.5857C12.6933 13.8958 12.7742 14.1331 12.9306 14.3029C13.0897 14.4755 13.2865 14.5591 13.5264 14.5591C13.699 14.5591 13.8473 14.5105 13.9686 14.4135C14.0899 14.3164 14.1654 14.187 14.1978 14.0252L15.0525 14.2194C14.9743 14.5537 14.8017 14.8125 14.5321 14.9985C14.2652 15.1846 13.9309 15.279 13.5318 15.279Z" fill="white"/>
</g>
<defs>
<clipPath id="clip0_69_1480">
<rect width="20" height="20" fill="white" transform="translate(0 0.970703)"/>
</clipPath>
</defs>
</svg>
