<svg width="185" height="35" viewBox="0 0 185 35" fill="none" xmlns="http://www.w3.org/2000/svg">
<path d="M75.2642 25V10.4545H81.0028C82.1061 10.4545 83.0459 10.6652 83.8224 11.0866C84.599 11.5033 85.1908 12.0833 85.598 12.8267C86.0099 13.5653 86.2159 14.4176 86.2159 15.3835C86.2159 16.3494 86.0076 17.2017 85.5909 17.9403C85.1742 18.679 84.5705 19.2543 83.7798 19.6662C82.9938 20.0781 82.0421 20.2841 80.9247 20.2841H77.267V17.8196H80.4276C81.0194 17.8196 81.5071 17.7178 81.8906 17.5142C82.2789 17.3059 82.5677 17.0194 82.7571 16.6548C82.9512 16.2855 83.0483 15.8617 83.0483 15.3835C83.0483 14.9006 82.9512 14.4792 82.7571 14.1193C82.5677 13.7547 82.2789 13.473 81.8906 13.2741C81.5024 13.0705 81.0099 12.9688 80.4134 12.9688H78.3395V25H75.2642ZM97.1978 10.4545H100.273V19.9006C100.273 20.9612 100.02 21.8892 99.5131 22.6847C99.0112 23.4801 98.3081 24.1004 97.4038 24.5455C96.4994 24.9858 95.4459 25.206 94.2433 25.206C93.0359 25.206 91.98 24.9858 91.0756 24.5455C90.1713 24.1004 89.4682 23.4801 88.9663 22.6847C88.4644 21.8892 88.2134 20.9612 88.2134 19.9006V10.4545H91.2887V19.6378C91.2887 20.1918 91.4094 20.6842 91.6509 21.1151C91.8971 21.5459 92.2428 21.8845 92.6879 22.1307C93.1329 22.3769 93.6514 22.5 94.2433 22.5C94.8398 22.5 95.3583 22.3769 95.7987 22.1307C96.2437 21.8845 96.587 21.5459 96.8285 21.1151C97.0747 20.6842 97.1978 20.1918 97.1978 19.6378V10.4545ZM102.803 25V10.4545H105.879V22.4645H112.114V25H102.803ZM122.042 14.6378C121.985 14.0649 121.741 13.6198 121.31 13.3026C120.879 12.9853 120.294 12.8267 119.556 12.8267C119.054 12.8267 118.63 12.8977 118.284 13.0398C117.939 13.1771 117.674 13.3688 117.489 13.6151C117.309 13.8613 117.219 14.1406 117.219 14.4531C117.21 14.7135 117.264 14.9408 117.382 15.1349C117.506 15.3291 117.674 15.4972 117.887 15.6392C118.1 15.7765 118.346 15.8973 118.625 16.0014C118.905 16.1009 119.203 16.1861 119.52 16.2571L120.827 16.5696C121.462 16.7116 122.044 16.901 122.574 17.1378C123.105 17.3745 123.564 17.6657 123.952 18.0114C124.34 18.357 124.641 18.7642 124.854 19.233C125.072 19.7017 125.183 20.2391 125.188 20.8452C125.183 21.7353 124.956 22.5071 124.506 23.1605C124.061 23.8092 123.417 24.3134 122.574 24.6733C121.736 25.0284 120.725 25.206 119.542 25.206C118.367 25.206 117.345 25.026 116.473 24.6662C115.607 24.3063 114.93 23.7737 114.442 23.0682C113.959 22.358 113.706 21.4796 113.682 20.4332H116.658C116.691 20.9209 116.831 21.3281 117.077 21.6548C117.328 21.9768 117.662 22.2206 118.078 22.3864C118.5 22.5473 118.976 22.6278 119.506 22.6278C120.027 22.6278 120.479 22.5521 120.863 22.4006C121.251 22.2491 121.551 22.0384 121.765 21.7685C121.978 21.4986 122.084 21.1884 122.084 20.8381C122.084 20.5114 121.987 20.2367 121.793 20.0142C121.604 19.7917 121.324 19.6023 120.955 19.446C120.59 19.2898 120.143 19.1477 119.613 19.0199L118.029 18.6222C116.802 18.3239 115.834 17.8575 115.124 17.223C114.414 16.5885 114.061 15.7339 114.066 14.6591C114.061 13.7784 114.295 13.009 114.769 12.3509C115.247 11.6927 115.903 11.179 116.736 10.8097C117.569 10.4403 118.516 10.2557 119.577 10.2557C120.657 10.2557 121.599 10.4403 122.404 10.8097C123.213 11.179 123.843 11.6927 124.293 12.3509C124.743 13.009 124.975 13.7713 124.989 14.6378H122.042ZM127.256 25V10.4545H137.058V12.9901H130.332V16.456H136.553V18.9915H130.332V22.4645H137.086V25H127.256ZM144.131 25V10.4545H149.87C150.973 10.4545 151.913 10.6652 152.69 11.0866C153.466 11.5033 154.058 12.0833 154.465 12.8267C154.877 13.5653 155.083 14.4176 155.083 15.3835C155.083 16.3494 154.875 17.2017 154.458 17.9403C154.041 18.679 153.438 19.2543 152.647 19.6662C151.861 20.0781 150.909 20.2841 149.792 20.2841H146.134V17.8196H149.295C149.887 17.8196 150.374 17.7178 150.758 17.5142C151.146 17.3059 151.435 17.0194 151.624 16.6548C151.818 16.2855 151.915 15.8617 151.915 15.3835C151.915 14.9006 151.818 14.4792 151.624 14.1193C151.435 13.7547 151.146 13.473 150.758 13.2741C150.37 13.0705 149.877 12.9688 149.281 12.9688H147.207V25H144.131ZM157.081 25V10.4545H162.819C163.918 10.4545 164.855 10.651 165.632 11.044C166.413 11.4323 167.007 11.9839 167.414 12.6989C167.826 13.4091 168.032 14.2448 168.032 15.206C168.032 16.1719 167.824 17.0028 167.407 17.6989C166.991 18.3902 166.387 18.9205 165.596 19.2898C164.81 19.6591 163.859 19.8438 162.741 19.8438H158.899V17.3722H162.244C162.831 17.3722 163.319 17.2917 163.707 17.1307C164.095 16.9697 164.384 16.7282 164.574 16.4062C164.768 16.0843 164.865 15.6842 164.865 15.206C164.865 14.723 164.768 14.3158 164.574 13.9844C164.384 13.6529 164.093 13.402 163.7 13.2315C163.312 13.0563 162.822 12.9688 162.23 12.9688H160.156V25H157.081ZM164.936 18.3807L168.551 25H165.156L161.619 18.3807H164.936ZM183.572 17.7273C183.572 19.3134 183.271 20.6629 182.67 21.7756C182.074 22.8883 181.259 23.7382 180.227 24.3253C179.199 24.9077 178.044 25.1989 176.761 25.1989C175.468 25.1989 174.308 24.9053 173.281 24.3182C172.253 23.7311 171.441 22.8812 170.845 21.7685C170.248 20.6558 169.95 19.3087 169.95 17.7273C169.95 16.1411 170.248 14.7917 170.845 13.679C171.441 12.5663 172.253 11.7187 173.281 11.1364C174.308 10.5492 175.468 10.2557 176.761 10.2557C178.044 10.2557 179.199 10.5492 180.227 11.1364C181.259 11.7187 182.074 12.5663 182.67 13.679C183.271 14.7917 183.572 16.1411 183.572 17.7273ZM180.454 17.7273C180.454 16.6998 180.3 15.8333 179.993 15.1278C179.69 14.4223 179.261 13.8873 178.707 13.5227C178.153 13.1581 177.504 12.9759 176.761 12.9759C176.018 12.9759 175.369 13.1581 174.815 13.5227C174.261 13.8873 173.83 14.4223 173.522 15.1278C173.219 15.8333 173.068 16.6998 173.068 17.7273C173.068 18.7547 173.219 19.6212 173.522 20.3267C173.83 21.0322 174.261 21.5672 174.815 21.9318C175.369 22.2964 176.018 22.4787 176.761 22.4787C177.504 22.4787 178.153 22.2964 178.707 21.9318C179.261 21.5672 179.69 21.0322 179.993 20.3267C180.3 19.6212 180.454 18.7547 180.454 17.7273Z" fill="#142F98"/>
<path fill-rule="evenodd" clip-rule="evenodd" d="M57.649 17.5081C57.649 27.1755 49.8083 35 40.157 35C36.1801 35 32.5266 33.6905 29.6005 31.4596L42.6143 17.8637C43.1155 17.3464 43.0831 16.5219 42.5658 16.0208C42.0485 15.5358 41.224 15.552 40.7229 16.0693L34.127 22.9723L27.6443 29.746L23.6998 33.8845C21.7598 34.612 19.6744 35 17.4919 35C7.82449 35 0 27.1755 0 17.5081C0 7.84065 7.82449 0 17.4919 0C21.5982 0 25.3649 1.42263 28.3557 3.79908L15.3256 17.1524C14.8245 17.6697 14.8245 18.4942 15.3418 18.9954C15.6005 19.2379 15.9238 19.3672 16.2471 19.3672C16.5866 19.3672 16.9261 19.2379 17.1848 18.9792L23.328 12.6744L30.2795 5.5612L34.1917 1.55196C34.2079 1.5358 34.2078 1.5358 34.2078 1.5358L34.321 1.40647L34.8383 0.840647C36.5035 0.290993 38.2818 0 40.157 0C49.8083 0 57.649 7.84065 57.649 17.5081ZM37.1986 9.06928C36.6651 8.55196 35.8407 8.5843 35.3557 9.10162L33.6744 10.8476L23.1986 21.8245L20.7252 24.3949C20.224 24.9122 20.2564 25.7367 20.7737 26.2379C21.0162 26.4804 21.3557 26.6097 21.679 26.6097C22.0185 26.6097 22.358 26.4642 22.6166 26.1894L24.1524 24.5889L34.5635 13.709L37.231 10.9122C37.7321 10.3949 37.7159 9.55427 37.1986 9.06928Z" fill="url(#paint0_linear_68_27)"/>
<defs>
<linearGradient id="paint0_linear_68_27" x1="-13.7087" y1="21.3033" x2="48.5568" y2="-20.2533" gradientUnits="userSpaceOnUse">
<stop stop-color="#42BBCD"/>
<stop offset="1" stop-color="#1D61AC"/>
</linearGradient>
</defs>
</svg>
